<svg width="1477" height="962" viewBox="0 0 1477 962" fill="none" xmlns="http://www.w3.org/2000/svg">
<path fill-rule="evenodd" clip-rule="evenodd" d="M1.77249 -0.313167C1.77249 -0.313167 121.778 254.197 291.5 349.585C461.222 444.973 670.726 440.439 903.463 545.416C1136.2 650.393 1260.92 961.685 1477 961.685C1784.88 961.685 1477 0.112002 1477 0.112002L1.77249 -0.313167Z" fill="#FFDC4E"/>
<mask id="mask0_0_4" style="mask-type:alpha" maskUnits="userSpaceOnUse" x="1" y="-1" width="1613" height="963">
<path fill-rule="evenodd" clip-rule="evenodd" d="M1.77249 -0.313167C1.77249 -0.313167 121.778 254.197 291.5 349.585C461.222 444.973 670.726 440.439 903.463 545.416C1136.2 650.393 1260.92 961.685 1477 961.685C1784.88 961.685 1477 0.112002 1477 0.112002L1.77249 -0.313167Z" fill="white"/>
</mask>
<g mask="url(#mask0_0_4)">
</g>
</svg>
