<svg width="12" height="14" viewBox="0 0 12 14" fill="none" xmlns="http://www.w3.org/2000/svg">
<path d="M1.84669 1.71639V2.30777H10.116C10.4408 2.30777 10.7048 2.57174 10.7073 2.89916V11.1684C10.7073 11.4933 10.4434 11.7573 10.116 11.7598H1.84669C1.52181 11.7598 1.25785 11.4958 1.25531 11.1684V2.89916C1.25531 2.57428 1.51927 2.30777 1.84669 2.30777V1.71639V1.125C0.866973 1.125 0.0750732 1.9169 0.0750732 2.89662V11.1659C0.0750732 12.1456 0.866973 12.9375 1.84669 12.9375H10.116C11.0957 12.9375 11.8876 12.1456 11.8876 11.1659V2.89916C11.8876 1.91944 11.0957 1.12754 10.116 1.12754H1.84669V1.71639Z" fill="#545454"/>
<path d="M7.76257 0.594175V2.96832C7.76257 3.29729 8.01365 3.5625 8.32507 3.5625C8.6365 3.5625 8.88757 3.29729 8.88757 2.96832V0.594175C8.88757 0.265211 8.6365 0 8.32507 0C8.01365 0 7.76257 0.265211 7.76257 0.594175Z" fill="#545454"/>
<path d="M2.88757 0.594175V2.96832C2.88757 3.29729 3.13865 3.5625 3.45007 3.5625C3.7615 3.5625 4.01257 3.29729 4.01257 2.96832V0.594175C4.01257 0.265211 3.7615 0 3.45007 0C3.14106 0 2.88757 0.265211 2.88757 0.594175Z" fill="#545454"/>
<path d="M11.1088 5.8125C11.4362 5.8125 11.7001 5.56143 11.7001 5.25C11.7001 4.93857 11.4362 4.6875 11.1088 4.6875H0.478845C0.151495 4.6875 0.154033 5.8125 0.478845 5.8125H11.1088Z" fill="#545454"/>
</svg>
