<svg width="13" height="13" viewBox="0 0 13 13" fill="none" xmlns="http://www.w3.org/2000/svg">
<path d="M8.99526 3C8.99526 4.30795 7.89592 5.4 6.50002 5.4C5.10413 5.4 4.00479 4.30795 4.00479 3C4.00479 1.69205 5.10413 0.6 6.50002 0.6C7.89592 0.6 8.99526 1.69205 8.99526 3Z" stroke="#929292" stroke-width="1.2"/>
<path d="M11.4714 9C11.4714 9.86188 10.9859 10.6976 10.0897 11.341C9.19443 11.9838 7.92721 12.4 6.50002 12.4C5.07282 12.4 3.8056 11.9838 2.91035 11.341C2.01411 10.6976 1.52859 9.86188 1.52859 9C1.52859 8.13812 2.01411 7.30242 2.91035 6.65897C3.8056 6.01622 5.07282 5.6 6.50002 5.6C7.92721 5.6 9.19443 6.01622 10.0897 6.65897C10.9859 7.30242 11.4714 8.13812 11.4714 9Z" stroke="#929292" stroke-width="1.2"/>
</svg>
