<svg width="280" height="347" viewBox="0 0 280 347" fill="none" xmlns="http://www.w3.org/2000/svg">
<path d="M88.1002 306.085C91.0539 301.961 95.0522 298.944 100.079 297.815C104.462 296.83 108.969 296.998 113.425 297.032L169.765 297.465C174.59 297.502 179.216 301.67 178.992 306.665C178.77 311.618 174.937 315.905 169.765 315.865C153.261 315.738 136.758 315.611 120.254 315.485C116.363 315.455 112.47 315.385 108.579 315.397C107.705 315.4 106.835 315.446 105.962 315.456C105.751 315.459 105.598 315.457 105.49 315.452C105.463 315.46 105.441 315.468 105.405 315.477C104.95 315.602 104.483 315.688 104.025 315.806C104.185 315.811 103.728 316.096 103.498 316.192C103.466 316.254 103.399 316.364 103.287 316.534C103.13 316.828 102.665 317.718 102.646 317.69C101.949 319.449 101.373 321.254 100.924 323.091C99.8515 327.143 99.6158 327.99 99.4614 331.792C99.2663 336.594 95.3569 341.221 90.2342 340.992C85.402 340.776 80.7976 336.943 81.0069 331.792C81.3594 323.113 82.8873 313.363 88.1002 306.085Z" fill="#E2BF31"/>
<path d="M167.191 326.741C168.255 320.287 169.299 313.829 170.384 307.38C171.485 300.836 173.734 294.844 178.823 290.55C180.183 289.403 181.592 288.331 183.008 287.264C183.506 286.888 184.003 286.512 184.495 286.128C184.525 286.106 184.544 286.091 184.569 286.071C184.623 286.025 184.688 285.969 184.775 285.896C186.896 284.099 188.946 282.223 190.898 280.229C192.632 278.458 194.29 276.612 195.872 274.689C196.268 274.209 196.658 273.725 197.043 273.236C197.109 273.152 197.466 272.691 197.701 272.39C197.92 272.088 198.32 271.544 198.387 271.449C198.837 270.812 199.279 270.17 199.713 269.521C202.669 265.09 205.229 260.406 207.362 255.525C207.574 255.041 207.78 254.554 207.982 254.064C208.036 253.915 208.106 253.723 208.199 253.467C208.629 252.284 209.058 251.103 209.451 249.906C210.286 247.363 211.004 244.783 211.605 242.165C211.902 240.873 212.17 239.574 212.408 238.268C212.53 237.597 212.645 236.924 212.752 236.25C212.769 236.138 212.874 235.411 212.935 235C212.98 234.587 213.065 233.855 213.076 233.742C213.144 233.063 213.204 232.382 213.257 231.701C213.376 230.169 213.456 228.634 213.498 227.097C213.569 224.365 213.52 221.633 213.351 218.901C213.255 217.366 213.118 215.835 212.949 214.307C212.939 214.213 212.931 214.139 212.923 214.071C212.913 214.003 212.901 213.926 212.887 213.829C212.762 212.985 212.631 212.141 212.484 211.301C211.927 208.109 211.203 204.949 210.315 201.833C209.894 200.359 209.437 198.898 208.944 197.448C208.724 196.804 208.498 196.163 208.264 195.525C208.279 195.566 207.578 193.774 207.569 193.714C204.788 187.139 200.238 181.145 200.232 173.676C200.228 168.619 204.504 163.774 209.513 164.008C214.704 164.204 218.808 168.478 218.794 173.676C218.794 173.789 218.795 173.886 218.795 173.98C218.842 174.138 218.881 174.269 218.916 174.385C219.458 175.564 220.123 176.685 220.718 177.835C222.348 180.983 223.74 184.234 225.062 187.532C227.226 192.904 228.882 198.467 230.009 204.148C232.459 216.595 232.649 229.381 230.571 241.896C226.972 263.841 215.105 284.849 198.607 298.97C197.176 300.195 195.709 301.379 194.228 302.539C193.616 303.019 192.998 303.491 192.377 303.959C192.084 304.18 190.868 305.139 191.403 304.675C190.253 305.657 189.769 306.151 189.474 306.874C189.431 307.041 189.372 307.267 189.293 307.577C189.085 308.392 188.888 309.206 188.723 310.033C187.287 317.26 186.289 324.608 185.09 331.881C184.265 336.878 178.116 340.131 173.673 338.633C168.501 336.89 166.307 332.095 167.191 326.741Z" fill="#E2BF31"/>
<path fill-rule="evenodd" clip-rule="evenodd" d="M101.796 330.36C101.757 338.472 95.2008 345.021 87.1412 345C79.0817 345.021 72.526 338.472 72.4865 330.36V311.129C44.202 297.588 24.5035 270.725 19.983 239.531C15.4624 208.336 26.7168 176.93 49.98 155.822V115.315C49.9715 114.332 50.5636 113.446 51.4705 113.083C52.3686 112.706 53.4043 112.914 54.0894 113.61L58.5344 118.041V114.416C58.5257 113.434 59.1171 112.548 60.0232 112.186C60.9219 111.809 61.9578 112.017 62.6443 112.711L85.472 135.51C95.4833 132.611 135.384 131.236 144.228 131.236C146.738 131.236 149.304 131.338 151.854 131.539C170.642 133.022 188.561 140.124 203.309 151.932C225.991 170.033 239 196.984 239 225.876C238.923 260.186 220.411 291.769 190.612 308.431V329.937C190.551 338.04 184.008 344.577 175.957 344.577C167.906 344.577 161.362 338.04 161.302 329.937V318.984C150.497 320.731 112.804 321.018 101.796 319.778V330.36ZM100.644 330.36V318.463L101.295 318.549C111.176 319.853 152.062 319.563 161.772 317.725L162.454 317.596V329.937C162.516 337.398 168.543 343.415 175.957 343.415C183.371 343.415 189.398 337.398 189.46 329.937V307.748L189.757 307.583C219.355 291.174 237.77 259.886 237.848 225.876C237.848 197.341 224.998 170.72 202.593 152.841C188.024 141.175 170.323 134.16 151.764 132.695C149.244 132.496 146.709 132.395 144.228 132.395C135.317 132.395 94.7881 133.785 85.4814 136.717L85.15 136.822L61.8336 113.535C61.476 113.167 60.9303 113.057 60.4595 113.259C59.9866 113.444 59.6782 113.905 59.6866 114.416V120.821L53.2769 114.432C52.9196 114.064 52.3748 113.955 51.9051 114.157C51.4322 114.342 51.1237 114.804 51.1322 115.314V156.339L50.9408 156.512C16.9257 187.064 10.1489 238.026 34.9846 276.506C44.4168 291.099 57.6828 302.776 73.3097 310.239L73.6386 310.396V330.36C73.6991 337.823 79.7267 343.84 87.1413 343.84C94.5558 343.84 100.583 337.823 100.644 330.36Z" fill="#3F3D56"/>
<path d="M87.1412 345L87.1373 343.5L87.1451 343.5L87.1412 345ZM101.796 330.36H103.296L103.296 330.367L101.796 330.36ZM72.4865 330.36L70.9865 330.367V330.36H72.4865ZM72.4865 311.129L73.1342 309.776L73.9865 310.184V311.129H72.4865ZM49.98 155.822H51.48V156.486L50.988 156.932L49.98 155.822ZM49.98 115.315L51.48 115.302V115.315H49.98ZM51.4705 113.083L52.0515 114.466L52.0395 114.471L52.0275 114.476L51.4705 113.083ZM54.0894 113.61L53.0304 114.672L53.0208 114.663L54.0894 113.61ZM58.5344 118.041H60.0344V121.654L57.4755 119.103L58.5344 118.041ZM58.5344 114.416L60.0344 114.403V114.416H58.5344ZM60.0232 112.186L60.6034 113.569L60.5921 113.574L60.5808 113.578L60.0232 112.186ZM62.6443 112.711L61.5843 113.773L61.5772 113.766L62.6443 112.711ZM85.472 135.51L85.8892 136.951L85.0386 137.197L84.412 136.571L85.472 135.51ZM151.854 131.539L151.736 133.034L151.736 133.034L151.854 131.539ZM203.309 151.932L202.373 153.105L202.371 153.103L203.309 151.932ZM239 225.876H240.5L240.5 225.879L239 225.876ZM190.612 308.431H189.112V307.551L189.88 307.122L190.612 308.431ZM190.612 329.937H192.112L192.112 329.948L190.612 329.937ZM161.302 329.937L159.802 329.948V329.937H161.302ZM161.302 318.984L161.062 317.503L162.802 317.222V318.984H161.302ZM101.796 319.778H100.296V318.1L101.964 318.287L101.796 319.778ZM100.644 318.463H99.1439V316.752L100.84 316.976L100.644 318.463ZM100.644 330.36H102.144L102.144 330.372L100.644 330.36ZM101.295 318.549L101.491 317.062L101.491 317.062L101.295 318.549ZM161.772 317.725L161.492 316.251L161.493 316.251L161.772 317.725ZM162.454 317.596L162.175 316.122L163.954 315.785V317.596H162.454ZM162.454 329.937L160.954 329.949V329.937H162.454ZM189.46 329.937H190.96L190.96 329.949L189.46 329.937ZM189.46 307.748H187.96V306.867L188.729 306.438L189.46 307.748ZM189.757 307.583L189.027 306.273L189.029 306.271L189.757 307.583ZM237.848 225.876H239.348L239.348 225.879L237.848 225.876ZM202.593 152.841L201.657 154.013L201.655 154.012L202.593 152.841ZM151.764 132.695L151.646 134.191L151.646 134.191L151.764 132.695ZM85.4814 136.717L85.0303 135.287L85.0307 135.287L85.4814 136.717ZM85.15 136.822L85.601 138.252L84.7336 138.526L84.09 137.883L85.15 136.822ZM61.8336 113.535L60.7736 114.597L60.7654 114.588L60.7572 114.58L61.8336 113.535ZM60.4595 113.259L61.0506 114.638L61.0282 114.647L61.0054 114.656L60.4595 113.259ZM59.6866 114.416L61.1864 114.391L61.1866 114.404V114.416H59.6866ZM59.6866 120.821H61.1866V124.435L58.6276 121.884L59.6866 120.821ZM53.2769 114.432L52.2179 115.494L52.2095 115.486L52.2013 115.477L53.2769 114.432ZM51.9051 114.157L52.4981 115.535L52.4747 115.545L52.451 115.555L51.9051 114.157ZM51.1322 115.314L52.632 115.29L52.6322 115.302V115.314H51.1322ZM51.1322 156.339H52.6322V157.005L52.1379 157.452L51.1322 156.339ZM50.9408 156.512L51.9465 157.625L51.9431 157.628L50.9408 156.512ZM34.9846 276.506L33.7248 277.32L33.7243 277.319L34.9846 276.506ZM73.3097 310.239L73.9562 308.886L73.9563 308.886L73.3097 310.239ZM73.6386 310.396L74.2852 309.043L75.1386 309.45V310.396H73.6386ZM73.6386 330.36L72.1386 330.372V330.36H73.6386ZM87.1451 343.5C94.3685 343.519 100.26 337.647 100.296 330.353L103.296 330.367C103.253 339.297 96.0331 346.523 87.1373 346.5L87.1451 343.5ZM73.9865 330.353C74.022 337.647 79.914 343.519 87.1373 343.5L87.1451 346.5C78.2494 346.523 71.03 339.297 70.9866 330.367L73.9865 330.353ZM73.9865 311.129V330.36H70.9865V311.129H73.9865ZM21.4675 239.316C25.9167 270.018 45.3037 296.452 73.1342 309.776L71.8388 312.482C43.1003 298.723 23.0903 271.433 18.4985 239.746L21.4675 239.316ZM50.988 156.932C28.0957 177.704 17.0181 208.613 21.4675 239.316L18.4985 239.746C13.9066 208.06 25.3378 176.156 48.9721 154.711L50.988 156.932ZM51.48 115.315V155.822H48.48V115.315H51.48ZM52.0275 114.476C51.6989 114.608 51.4768 114.933 51.48 115.302L48.4801 115.328C48.4662 113.732 49.4284 112.284 50.9136 111.691L52.0275 114.476ZM53.0208 114.663C52.7648 114.403 52.3821 114.327 52.0515 114.466L50.8895 111.7C52.3551 111.085 54.0437 111.426 55.1581 112.557L53.0208 114.663ZM57.4755 119.103L53.0305 114.672L55.1484 112.548L59.5934 116.978L57.4755 119.103ZM60.0344 114.416V118.041H57.0344V114.416H60.0344ZM60.5808 113.578C60.2528 113.71 60.0311 114.034 60.0344 114.403L57.0345 114.429C57.0203 112.834 57.9815 111.387 59.4656 110.793L60.5808 113.578ZM61.5772 113.766C61.3198 113.505 60.9356 113.43 60.6034 113.569L59.4431 110.802C60.9082 110.188 62.5958 110.528 63.7113 111.657L61.5772 113.766ZM84.412 136.571L61.5843 113.773L63.7043 111.65L86.532 134.449L84.412 136.571ZM144.228 132.736C139.844 132.736 127.689 133.078 115.374 133.783C109.219 134.136 103.04 134.578 97.7839 135.111C92.489 135.649 88.2448 136.269 85.8892 136.951L85.0548 134.069C87.7048 133.302 92.2025 132.662 97.481 132.127C102.798 131.587 109.025 131.142 115.202 130.788C127.551 130.081 139.768 129.736 144.228 129.736V132.736ZM151.736 133.034C149.225 132.836 146.698 132.736 144.228 132.736V129.736C146.778 129.736 149.383 129.839 151.972 130.044L151.736 133.034ZM202.371 153.103C187.857 141.482 170.224 134.493 151.736 133.034L151.972 130.044C171.06 131.55 189.264 138.765 204.246 150.761L202.371 153.103ZM237.5 225.876C237.5 197.443 224.701 170.922 202.373 153.105L204.244 150.76C227.281 169.144 240.5 196.526 240.5 225.876H237.5ZM189.88 307.122C219.203 290.726 237.424 259.644 237.5 225.872L240.5 225.879C240.422 260.728 221.619 292.812 191.344 309.741L189.88 307.122ZM189.112 329.937V308.431H192.112V329.937H189.112ZM175.957 343.077C183.175 343.077 189.057 337.214 189.112 329.926L192.112 329.948C192.045 338.866 184.841 346.077 175.957 346.077V343.077ZM162.802 329.926C162.856 337.214 168.739 343.077 175.957 343.077V346.077C167.073 346.077 159.868 338.866 159.802 329.948L162.802 329.926ZM162.802 318.984V329.937H159.802V318.984H162.802ZM101.964 318.287C107.364 318.896 119.452 319.137 131.608 319.001C143.777 318.866 155.789 318.356 161.062 317.503L161.541 320.464C156.01 321.359 143.773 321.866 131.642 322.001C119.498 322.136 107.236 321.9 101.628 321.269L101.964 318.287ZM100.296 330.36V319.778H103.296V330.36H100.296ZM102.144 318.463V330.36H99.1439V318.463H102.144ZM101.099 320.036L100.448 319.95L100.84 316.976L101.491 317.062L101.099 320.036ZM162.051 319.198C157.039 320.148 144.245 320.677 131.614 320.815C118.964 320.954 106.163 320.705 101.099 320.036L101.491 317.062C106.307 317.698 118.89 317.955 131.581 317.816C144.29 317.676 156.794 317.141 161.492 316.251L162.051 319.198ZM162.733 319.069L162.05 319.199L161.493 316.251L162.175 316.122L162.733 319.069ZM160.954 329.937V317.596H163.954V329.937H160.954ZM175.957 344.915C167.711 344.915 161.023 338.225 160.954 329.949L163.954 329.924C164.009 336.572 169.376 341.915 175.957 341.915V344.915ZM190.96 329.949C190.891 338.225 184.203 344.915 175.957 344.915V341.915C182.538 341.915 187.905 336.572 187.96 329.924L190.96 329.949ZM190.96 307.748V329.937H187.96V307.748H190.96ZM190.487 308.893L190.19 309.059L188.729 306.438L189.027 306.273L190.487 308.893ZM239.348 225.879C239.269 260.43 220.561 292.22 190.484 308.895L189.029 306.271C218.149 290.127 236.271 259.342 236.348 225.872L239.348 225.879ZM203.528 151.668C226.288 169.831 239.348 196.882 239.348 225.876H236.348C236.348 197.799 223.708 171.61 201.657 154.013L203.528 151.668ZM151.882 131.2C170.742 132.688 188.728 139.817 203.53 151.67L201.655 154.012C187.32 142.533 169.905 135.631 151.646 134.191L151.882 131.2ZM144.228 130.895C146.749 130.895 149.323 130.998 151.882 131.2L151.646 134.191C149.164 133.995 146.668 133.895 144.228 133.895V130.895ZM85.0307 135.287C87.5234 134.501 91.9481 133.854 97.1794 133.313C102.459 132.767 108.701 132.317 114.917 131.959C127.344 131.244 139.735 130.895 144.228 130.895V133.895C139.811 133.895 127.481 134.241 115.089 134.954C108.896 135.311 102.704 135.758 97.488 136.297C92.2241 136.841 88.0926 137.467 85.9321 138.148L85.0307 135.287ZM84.699 135.391L85.0303 135.287L85.9324 138.148L85.601 138.252L84.699 135.391ZM62.8936 112.474L86.21 135.76L84.09 137.883L60.7736 114.597L62.8936 112.474ZM59.8685 111.88C60.9124 111.433 62.1208 111.677 62.9099 112.49L60.7572 114.58C60.8312 114.656 60.9483 114.681 61.0506 114.638L59.8685 111.88ZM58.1868 114.441C58.1681 113.308 58.8525 112.276 59.9137 111.862L61.0054 114.656C61.1208 114.611 61.1882 114.503 61.1864 114.391L58.1868 114.441ZM58.1866 120.821V114.416H61.1866V120.821H58.1866ZM54.3359 113.369L60.7456 119.759L58.6276 121.884L52.2179 115.494L54.3359 113.369ZM51.3121 112.78C52.3549 112.331 53.5631 112.574 54.3525 113.386L52.2013 115.477C52.2762 115.554 52.3947 115.58 52.4981 115.535L51.3121 112.78ZM49.6324 115.339C49.6136 114.207 50.2981 113.175 51.3592 112.76L52.451 115.555C52.5663 115.51 52.6338 115.401 52.632 115.29L49.6324 115.339ZM49.6322 156.339V115.314H52.6322V156.339H49.6322ZM49.935 155.399L50.1264 155.226L52.1379 157.452L51.9465 157.625L49.935 155.399ZM33.7243 277.319C8.48999 238.222 15.3737 186.441 49.9384 155.396L51.9431 157.628C18.4776 187.686 11.8078 237.831 36.2449 275.692L33.7243 277.319ZM72.6633 311.593C56.7851 304.009 43.3071 292.146 33.7248 277.32L36.2443 275.692C45.5264 290.053 58.5805 301.542 73.9562 308.886L72.6633 311.593ZM72.9921 311.75L72.6632 311.593L73.9563 308.886L74.2852 309.043L72.9921 311.75ZM72.1386 330.36V310.396H75.1386V330.36H72.1386ZM87.1413 345.34C78.894 345.34 72.2058 338.649 72.1387 330.372L75.1386 330.348C75.1925 336.996 80.5594 342.34 87.1413 342.34V345.34ZM102.144 330.372C102.077 338.649 95.3885 345.34 87.1413 345.34V342.34C93.7231 342.34 99.09 336.996 99.1439 330.348L102.144 330.372Z" fill="#2F2E41"/>
<path d="M166.543 70.1612L229.395 89.3392C233.558 90.6145 235.916 95.0724 234.665 99.3003C233.413 103.528 229.025 105.928 224.86 104.662L169.857 87.8755L168.705 87.524C168.472 81.4954 166.861 75.6045 164 70.3167C164.359 70.1527 164.743 70.0514 165.135 70.0171C165.609 69.9705 166.087 70.0195 166.543 70.1612Z" fill="#E2BF31"/>
<path d="M226.98 106C228.717 105.996 230.257 104.921 230.805 103.331L234.795 91.717C235.132 90.7375 235.051 89.6691 234.571 88.7469C234.091 87.8248 233.25 87.1244 232.235 86.7999L180.298 70.1976C179.282 69.8729 178.175 69.9507 177.219 70.4137C176.263 70.8767 175.536 71.687 175.2 72.6665L171.209 84.2808C170.519 86.2668 171.589 88.4225 173.626 89.1494C173.674 89.1667 173.722 89.1831 173.771 89.1985L225.707 105.8C226.117 105.932 226.547 106 226.98 106Z" fill="#2F2E41"/>
<path fill-rule="evenodd" clip-rule="evenodd" d="M168.983 86.7714C168.31 65.1719 150.61 48.0084 129 48C106.909 48 89 65.9086 89 88C89 110.091 106.909 128 129 128C151.091 128 169 110.091 169 88C169 87.5886 168.994 87.1771 168.983 86.7714ZM167.857 88C167.835 109.451 150.451 126.835 129 126.857C107.746 126.858 90.4347 109.781 90.1465 88.5281C89.8582 67.2756 106.699 49.7353 127.946 49.1594C149.193 48.5836 166.959 65.1859 167.823 86.4229C167.846 86.9429 167.857 87.4686 167.857 88Z" fill="#3F3D56"/>
<path d="M129 48V46.5L129.001 46.5L129 48ZM168.983 86.7714L170.482 86.7247L170.482 86.7292L168.983 86.7714ZM129 126.857L129.002 128.357H129L129 126.857ZM167.857 88H169.357L169.357 88.0016L167.857 88ZM90.1465 88.5281L88.6466 88.5485L90.1465 88.5281ZM127.946 49.1594L127.987 50.6589L127.946 49.1594ZM167.823 86.4229L166.324 86.4888L166.324 86.4838L167.823 86.4229ZM129.001 46.5C151.421 46.5087 169.784 64.3156 170.482 86.7247L167.484 86.8181C166.836 66.0283 149.799 49.508 128.999 49.5L129.001 46.5ZM87.5 88C87.5 65.0802 106.08 46.5 129 46.5V49.5C107.737 49.5 90.5 66.737 90.5 88H87.5ZM129 129.5C106.08 129.5 87.5 110.92 87.5 88H90.5C90.5 109.263 107.737 126.5 129 126.5V129.5ZM170.5 88C170.5 110.92 151.92 129.5 129 129.5V126.5C150.263 126.5 167.5 109.263 167.5 88H170.5ZM170.482 86.7292C170.494 87.1496 170.5 87.5751 170.5 88H167.5C167.5 87.6021 167.495 87.2047 167.484 86.8137L170.482 86.7292ZM128.998 125.357C149.622 125.336 166.336 108.622 166.357 87.9984L169.357 88.0016C169.334 110.28 151.28 128.334 129.002 128.357L128.998 125.357ZM91.6463 88.5078C91.9234 108.94 108.566 125.358 129 125.357L129 128.357C106.925 128.358 88.946 110.621 88.6466 88.5485L91.6463 88.5078ZM127.987 50.6589C107.56 51.2125 91.3692 68.0757 91.6463 88.5078L88.6466 88.5485C88.3472 66.4755 105.839 48.258 127.906 47.66L127.987 50.6589ZM166.324 86.4838C165.494 66.0667 148.413 50.1052 127.987 50.6589L127.906 47.66C149.972 47.0619 168.425 64.3051 169.322 86.3619L166.324 86.4838ZM166.357 88C166.357 87.4901 166.346 86.9864 166.324 86.4888L169.321 86.3569C169.345 86.8993 169.357 87.447 169.357 88H166.357Z" fill="#2F2E41"/>
<path d="M94 88.0002C94 106.778 109.222 122 128 122C146.778 122 162 106.778 162 88.0002C162 86.9226 161.948 85.8623 161.85 84.8135C160.148 66.7361 144.542 53.1862 126.405 54.0381C108.267 54.8899 94.0001 69.8429 94 88.0002Z" fill="#E2BF31"/>
<path fill-rule="evenodd" clip-rule="evenodd" d="M119.241 89.8006C120.035 88.6971 121.08 87.8231 122.279 87.2594C123.758 86.6009 125.285 86.071 126.846 85.6748V76.2494C124.447 76.6314 122.198 77.715 120.352 79.3775L118.541 75.2986C119.582 74.3183 120.778 73.5377 122.074 72.9921C123.51 72.3777 125.018 71.9691 126.557 71.7773V67H130.751V71.8242C132.37 72.0164 133.933 72.5706 135.334 73.4499C136.599 74.2414 137.665 75.3449 138.439 76.666C139.178 77.9554 139.561 79.4373 139.545 80.9445C139.617 82.5777 139.169 84.1894 138.272 85.5222C137.447 86.6761 136.358 87.5891 135.106 88.1749C133.604 88.8528 132.05 89.3966 130.462 89.8006V98.8328C133.292 98.6073 135.989 97.4704 138.189 95.5756L140 99.6603C138.77 100.735 137.371 101.573 135.867 102.137C134.219 102.76 132.497 103.139 130.751 103.264V108H126.557V103.176C124.227 102.907 122.042 101.849 120.329 100.159C118.804 98.6138 117.962 96.4638 118.007 94.2316C117.938 92.6504 118.372 91.0902 119.241 89.8006ZM130.462 84.6771C131.484 84.3498 132.433 83.8111 133.256 83.0925C133.916 82.472 134.279 81.572 134.245 80.6393C134.275 79.594 133.912 78.5787 133.234 77.8163C132.483 77.0165 131.513 76.485 130.462 76.2963V84.6771ZM126.846 98.6157C125.844 98.4419 124.921 97.9339 124.212 97.166C123.592 96.4003 123.268 95.4149 123.307 94.4077C123.28 93.576 123.613 92.7767 124.212 92.2362C124.992 91.5898 125.888 91.1167 126.846 90.8453V98.6157Z" fill="#2F2E41"/>
<path d="M224.735 157C226.582 156.997 228.198 155.743 228.673 153.942L230.865 145.575C231.436 143.386 230.142 141.143 227.973 140.562L158.828 122.134C156.655 121.563 154.434 122.869 153.857 125.057L152 132.146L152.348 132.173C170.081 133.563 187.049 140.048 201.243 150.859L201.344 150.908L223.702 156.865C224.039 156.955 224.386 157 224.735 157Z" fill="#2F2E41"/>
<path d="M235.982 198.345C243.958 197.152 251.586 194.233 258.347 189.786C261.696 187.584 264.796 185.018 267.593 182.132C270.353 179.283 272.993 176.044 274.36 172.25C275.675 168.739 275.607 164.851 274.17 161.39C272.753 157.95 270.046 155.219 266.642 153.795C263.218 152.413 259.082 152.266 255.749 153.779C254.161 154.484 252.787 155.603 251.768 157.023C251.294 157.677 250.944 158.414 250.733 159.197C250.538 159.907 250.52 160.654 250.682 161.372C251.077 162.823 252.072 164.03 253.411 164.684C254.867 165.44 256.445 165.927 258.071 166.122C259.706 166.348 262.054 166.553 263.369 165.225C263.639 164.962 263.852 164.644 263.994 164.293C264.092 164.023 264.126 163.734 264.092 163.449C264.111 163.575 264.013 163.176 264.018 163.192C264.039 163.251 264.129 163.394 264.001 163.174C263.961 163.101 263.917 163.031 263.868 162.963C263.911 163.02 264.007 163.115 263.836 162.952C263.696 162.796 263.515 162.683 263.314 162.626C263.235 162.603 263.154 162.584 263.075 162.562C262.873 162.506 263.276 162.565 263.07 162.558C262.99 162.556 262.91 162.558 262.83 162.554C262.628 162.545 263.03 162.498 262.836 162.548C262.761 162.567 262.686 162.586 262.612 162.609C262.451 162.661 262.726 162.489 262.617 162.618C262.489 162.768 262.751 162.472 262.606 162.617C262.533 162.689 262.465 162.765 262.401 162.845C261.876 163.37 261.031 163.37 260.506 162.845C260 162.308 260 161.464 260.506 160.927C261.827 159.269 264.437 159.679 265.774 161.08C267.479 162.867 266.804 165.699 265.146 167.258C263.268 169.023 260.61 169.146 258.195 168.85C256.155 168.652 254.166 168.083 252.325 167.171C250.495 166.261 249.065 164.697 248.309 162.78C247.62 160.712 247.84 158.443 248.913 156.549C251.045 152.493 255.46 150.413 259.823 150.053C264.361 149.693 268.852 151.185 272.296 154.197C275.582 157.192 277.606 161.35 277.949 165.813C278.329 170.439 276.556 174.932 273.97 178.666C271.263 182.459 268.033 185.841 264.378 188.707C257.233 194.48 248.851 198.481 239.904 200.389C238.84 200.611 237.77 200.802 236.695 200.96C235.984 201.135 235.263 200.72 235.046 200.013C234.855 199.291 235.272 198.548 235.982 198.345L235.982 198.345Z" fill="#272449" stroke="#2F2E41"/>
<path d="M107.075 137.049C118.643 136.866 130.175 137.196 141.671 138.038C145.6 138.327 149 139.886 149 142.508C149 144.7 145.627 147.268 141.671 146.977C130.181 146.135 118.649 145.805 107.075 145.988C97.6389 146.138 97.6445 137.199 107.075 137.049Z" fill="#E6C646"/>
<path fill-rule="evenodd" clip-rule="evenodd" d="M156 141.5C156 145.949 125.786 146 124.5 146C123.214 146 93 145.949 93 141.5C93 137.051 123.214 137 124.5 137C125.786 137 156 137.051 156 141.5ZM124.5 144.759C142.886 144.759 153.992 142.849 154.819 141.5C153.992 140.151 142.886 138.241 124.5 138.241C106.114 138.241 95.0083 140.151 94.1814 141.5C95.0084 142.849 106.114 144.759 124.5 144.759ZM154.819 141.5C154.819 141.5 154.819 141.5 154.819 141.5V141.5C154.819 141.5 154.819 141.5 154.819 141.5Z" fill="#3F3D56"/>
<path d="M94.1814 141.5L93.3289 142.023L93.0085 141.5L93.3289 140.977L94.1814 141.5ZM154.819 141.5L153.995 140.933L155.819 138.28V141.5H154.819ZM154.819 141.5H155.819V144.72L153.995 142.066L154.819 141.5ZM124.5 145C125.137 145 132.983 144.987 140.659 144.421C144.504 144.137 148.263 143.718 151.043 143.103C152.442 142.794 153.528 142.449 154.241 142.082C155.037 141.671 155 141.435 155 141.5H157C157 142.677 156.019 143.415 155.157 143.859C154.213 144.346 152.929 144.735 151.475 145.056C148.55 145.703 144.675 146.13 140.806 146.416C133.054 146.987 125.149 147 124.5 147V145ZM94 141.5C94 141.435 93.9628 141.671 94.759 142.082C95.4724 142.449 96.5579 142.794 97.9568 143.103C100.737 143.718 104.496 144.137 108.341 144.421C116.017 144.987 123.863 145 124.5 145V147C123.851 147 115.946 146.987 108.194 146.416C104.325 146.13 100.45 145.703 97.5252 145.056C96.0715 144.735 94.7865 144.346 93.8426 143.859C92.9813 143.415 92 142.677 92 141.5H94ZM124.5 138C123.863 138 116.017 138.013 108.341 138.579C104.496 138.863 100.737 139.282 97.9568 139.896C96.5579 140.206 95.4723 140.55 94.7589 140.918C93.9628 141.328 94 141.565 94 141.5H92C92 140.322 92.9814 139.584 93.8426 139.14C94.7865 138.654 96.0715 138.265 97.5252 137.944C100.45 137.297 104.325 136.87 108.194 136.584C115.946 136.013 123.851 136 124.5 136V138ZM155 141.5C155 141.565 155.037 141.328 154.241 140.918C153.528 140.55 152.442 140.206 151.043 139.896C148.263 139.282 144.504 138.863 140.659 138.579C132.983 138.013 125.137 138 124.5 138V136C125.149 136 133.054 136.013 140.806 136.584C144.675 136.87 148.55 137.297 151.475 137.944C152.929 138.265 154.213 138.654 155.157 139.14C156.019 139.584 157 140.322 157 141.5H155ZM155.671 142.022C155.513 142.281 155.288 142.464 155.101 142.589C154.903 142.722 154.673 142.839 154.43 142.945C153.943 143.156 153.313 143.356 152.565 143.547C151.064 143.93 148.978 144.302 146.368 144.627C141.14 145.28 133.724 145.759 124.5 145.759V143.759C133.662 143.759 140.992 143.283 146.12 142.643C148.687 142.322 150.682 141.964 152.071 141.609C152.768 141.431 153.285 141.261 153.635 141.109C153.811 141.034 153.922 140.971 153.987 140.928C154.062 140.878 154.021 140.887 153.966 140.977L155.671 142.022ZM124.5 137.241C133.724 137.241 141.14 137.72 146.368 138.373C148.978 138.698 151.064 139.07 152.565 139.453C153.313 139.644 153.943 139.844 154.43 140.055C154.673 140.16 154.903 140.278 155.101 140.411C155.288 140.536 155.512 140.718 155.671 140.977L153.966 142.023C154.021 142.113 154.062 142.122 153.987 142.071C153.922 142.028 153.811 141.966 153.635 141.89C153.285 141.739 152.768 141.569 152.071 141.391C150.682 141.036 148.687 140.677 146.12 140.357C140.992 139.717 133.662 139.241 124.5 139.241V137.241ZM93.3289 140.977C93.4875 140.718 93.712 140.536 93.899 140.411C94.0973 140.278 94.3268 140.16 94.5702 140.055C95.057 139.844 95.687 139.644 96.4348 139.453C97.9357 139.07 100.022 138.698 102.632 138.373C107.86 137.72 115.276 137.241 124.5 137.241V139.241C115.338 139.241 108.008 139.717 102.88 140.357C100.313 140.677 98.3178 141.036 96.9293 141.391C96.2323 141.569 95.7154 141.739 95.3648 141.89C95.1894 141.966 95.0776 142.028 95.0134 142.071C94.9379 142.122 94.9787 142.113 95.034 142.023L93.3289 140.977ZM124.5 145.759C115.276 145.759 107.86 145.28 102.632 144.627C100.022 144.302 97.9358 143.93 96.4348 143.547C95.687 143.356 95.057 143.156 94.5702 142.945C94.3268 142.839 94.0973 142.722 93.899 142.589C93.7119 142.464 93.4875 142.281 93.3289 142.023L95.034 140.977C94.9787 140.887 94.938 140.878 95.0135 140.928C95.0776 140.971 95.1895 141.034 95.3649 141.109C95.7155 141.261 96.2324 141.431 96.9294 141.609C98.3179 141.964 100.313 142.322 102.88 142.643C108.008 143.283 115.338 143.759 124.5 143.759V145.759ZM155.643 142.066C155.65 142.056 155.656 142.046 155.661 142.038C155.666 142.03 155.67 142.024 155.673 142.019C155.676 142.014 155.679 142.01 155.68 142.007C155.681 142.005 155.683 142.003 155.682 142.004C155.682 142.004 155.682 142.004 155.682 142.004C155.682 142.004 155.682 142.004 155.682 142.004C155.682 142.004 155.682 142.004 155.682 142.004C155.682 142.004 155.682 142.004 155.682 142.004C155.682 142.004 155.682 142.004 155.682 142.004C155.682 142.004 155.682 142.004 155.682 142.005C155.681 142.005 155.681 142.006 155.68 142.007C155.679 142.01 155.676 142.014 155.673 142.019C155.67 142.024 155.666 142.03 155.661 142.038C155.656 142.046 155.65 142.056 155.643 142.066L153.995 140.933C153.987 140.944 153.981 140.954 153.976 140.961C153.971 140.969 153.967 140.976 153.964 140.981C153.961 140.986 153.958 140.99 153.957 140.992C153.956 140.994 153.955 140.996 153.955 140.996C153.955 140.996 153.955 140.996 153.955 140.996C153.955 140.996 153.955 140.996 153.955 140.996C153.955 140.996 153.955 140.996 153.955 140.996C153.955 140.996 153.955 140.996 153.955 140.996C153.955 140.996 153.955 140.996 153.955 140.996C153.955 140.996 153.955 140.995 153.955 140.995C153.956 140.994 153.956 140.993 153.957 140.992C153.958 140.99 153.961 140.986 153.964 140.981C153.967 140.976 153.971 140.969 153.976 140.961C153.981 140.954 153.987 140.944 153.995 140.933L155.643 142.066ZM153.819 141.5V141.5H155.819V141.5H153.819ZM155.643 140.933C155.65 140.944 155.656 140.954 155.661 140.961C155.666 140.969 155.67 140.976 155.673 140.981C155.676 140.986 155.679 140.99 155.68 140.992C155.681 140.993 155.681 140.994 155.682 140.995C155.682 140.995 155.682 140.996 155.682 140.996C155.682 140.996 155.682 140.996 155.682 140.996C155.682 140.996 155.682 140.996 155.682 140.996C155.682 140.996 155.682 140.996 155.682 140.996C155.682 140.996 155.682 140.996 155.682 140.996C155.682 140.996 155.682 140.996 155.682 140.996C155.683 140.996 155.681 140.994 155.68 140.992C155.679 140.99 155.676 140.986 155.673 140.981C155.67 140.976 155.666 140.969 155.661 140.961C155.656 140.954 155.65 140.944 155.643 140.933L153.995 142.066C153.987 142.056 153.981 142.046 153.976 142.038C153.971 142.03 153.967 142.024 153.964 142.019C153.961 142.014 153.958 142.01 153.957 142.007C153.956 142.006 153.956 142.005 153.955 142.005C153.955 142.004 153.955 142.004 153.955 142.004C153.955 142.004 153.955 142.004 153.955 142.004C153.955 142.004 153.955 142.004 153.955 142.004C153.955 142.004 153.955 142.004 153.955 142.004C153.955 142.004 153.955 142.004 153.955 142.004C153.955 142.004 153.955 142.004 153.955 142.004C153.955 142.003 153.956 142.005 153.957 142.007C153.958 142.01 153.961 142.014 153.964 142.019C153.967 142.024 153.971 142.03 153.976 142.038C153.981 142.046 153.987 142.056 153.995 142.066L155.643 140.933Z" fill="#2F2E41"/>
<path d="M28.8875 254C22.2041 253.817 13.8862 253.587 7.47822 248.963C3.61573 246.061 1.24794 241.622 1.00877 236.834C0.877975 233.182 2.21359 229.994 4.76976 227.86C8.11665 225.066 13.004 224.41 18.2708 225.94L12.8139 186.542L16.8197 186L23.2349 232.317L19.8897 230.8C16.0115 229.043 10.6879 228.149 7.37971 230.91C5.73312 232.374 4.87143 234.512 5.04933 236.694C5.24776 240.256 7.00489 243.557 9.86337 245.737C14.8501 249.335 21.4802 249.8 29 250.007L28.8875 254Z" fill="#272449"/>
<rect width="21" height="4" transform="matrix(-1 0 0 1 61 191)" fill="#272449"/>
<path d="M215.617 175C217.615 174.994 219.313 173.52 219.625 171.521L220.951 162.948C221.296 160.703 219.781 158.599 217.566 158.245L147.018 147.05C144.802 146.7 142.725 148.234 142.375 150.478L141.049 159.051C140.704 161.296 142.218 163.4 144.434 163.755L214.981 174.95C215.192 174.983 215.404 175 215.617 175Z" fill="#2F2E41"/>
<circle r="29.5" transform="matrix(-1 0 0 1 243.5 45.5)" fill="#E2BF31"/>
<path d="M226.706 55.1482C225.554 54.802 224.503 54.2479 223.622 53.5232C222.441 52.4773 221.859 51.0366 222.029 49.5867C222.129 48.5518 222.785 47.6164 223.803 47.0582C225.107 46.369 226.829 46.395 228.568 47.0882L228.769 35L230.181 35.0173L229.945 49.2282L228.87 48.6219C227.623 47.9201 225.832 47.4111 224.543 48.0927C223.897 48.4585 223.487 49.0623 223.433 49.7258C223.312 50.8056 223.744 51.8769 224.616 52.6608C226.147 53.967 228.414 54.4046 231 54.8049L230.75 56C229.375 55.8205 228.021 55.5354 226.706 55.1482Z" fill="#2F2E41" stroke="#2F2E41" stroke-width="2"/>
<path d="M223.326 35.2707L217.173 34.3385L217 35.4812L223.153 36.4134L223.326 35.2707Z" fill="#2F2E41" stroke="#2F2E41" stroke-width="2"/>
<path d="M242.745 38.2126L236.593 37.2804L236.42 38.4231L242.572 39.3553L242.745 38.2126Z" fill="#2F2E41" stroke="#2F2E41" stroke-width="2"/>
<path d="M224.989 173C227.169 172.995 229.118 171.66 229.885 169.646L250.297 115.702C255.491 101.926 248.406 86.6009 234.458 81.444L217.861 75.3282C216.565 74.8473 215.128 74.8965 213.868 75.465C212.612 76.019 211.634 77.0482 211.154 78.3211L173.343 148.772C172.847 150.055 172.89 151.48 173.463 152.732C174.036 153.983 175.091 154.958 176.394 155.439L223.163 172.672C223.747 172.889 224.365 173 224.989 173Z" fill="#2F2E41"/>
<path d="M223 77.5799L187 128L211.36 78.1091C211.766 76.9334 212.602 75.975 213.683 75.4448C214.764 74.9146 216.002 74.856 217.124 75.2819L223 77.5799Z" fill="#E2BF31"/>
<path d="M163.561 115.992L230.47 111.554C233.339 111.364 235.891 109.612 237.166 106.959C238.441 104.305 238.243 101.153 236.649 98.6903C235.054 96.2271 232.304 94.8269 229.435 95.0172L162.527 99.4543C161.529 99.5203 160.598 99.9917 159.938 100.765C159.278 101.538 158.944 102.549 159.008 103.576L159.558 112.369C159.692 114.508 161.484 116.129 163.561 115.992Z" fill="#E2BF31"/>
<path d="M181.915 119C182.002 119 182.089 118.997 182.177 118.992H182.177L236.261 115.485C237.319 115.417 238.306 114.929 239.006 114.128C239.705 113.327 240.06 112.279 239.992 111.214L239.067 96.7624C238.999 95.6982 238.513 94.7047 237.717 94.0007C236.921 93.2966 235.88 92.9397 234.823 93.0084L180.738 96.5142C178.538 96.6593 176.869 98.57 177.008 100.785L177.933 115.237C178.037 116.819 179.052 118.193 180.528 118.748C180.971 118.915 181.441 119 181.915 119Z" fill="#2F2E41"/>
<path d="M244.35 28.2833C240.428 24.9294 235.043 27.9297 230.545 27.4045C226.242 26.902 222.845 23.0641 221.977 18.9869C220.964 14.2301 223.447 9.46443 227.107 6.49865C231.115 3.25039 236.431 2.31789 241.469 2.91884C247.243 3.6076 252.523 6.2838 257.261 9.52079C261.834 12.5485 266.04 16.0922 269.794 20.0813C273.155 23.7731 276.003 28.1736 276.913 33.1414C277.739 37.6562 277.108 42.6591 274.424 46.4837C273.001 48.444 271.094 50.0064 268.887 51.0204C266.585 52.1442 264.13 52.9475 261.9 54.2181C258.529 56.1393 255.252 60.1228 256.308 64.2682C256.535 65.1738 256.982 66.0101 257.61 66.7035C258.364 67.5363 259.725 66.4359 258.968 65.6009C257.64 64.1344 257.692 62.1787 258.4 60.4278C259.242 58.4549 260.733 56.8248 262.628 55.8045C264.962 54.4776 267.539 53.6586 269.931 52.4499C272.221 51.3458 274.208 49.708 275.725 47.6758C278.588 43.7193 279.444 38.5703 278.795 33.807C278.092 28.6524 275.429 23.9684 272.09 20.0432C268.457 15.7714 263.993 12.1555 259.434 8.90712C254.541 5.42156 249.136 2.47475 243.155 1.40894C237.97 0.485051 232.35 1.05386 227.816 3.86345C223.584 6.48602 220.339 10.9974 220.016 16.0383C219.78 20.7085 222.1 25.1412 226.082 27.6293C228.088 28.8233 230.421 29.3607 232.751 29.1657C235.242 29.0071 237.735 28.2486 240.242 28.4592C241.376 28.5277 242.457 28.962 243.321 29.6964C244.178 30.4291 245.199 29.0101 244.35 28.2833L244.35 28.2833Z" fill="#2F2E41" stroke="#2F2E41" stroke-width="2"/>
<path d="M19.001 345.5H238.999C239.377 345.499 18.6222 345.5 19.001 345.5Z" stroke="#3F3D56" stroke-width="3"/>
</svg>
