<svg width="20" height="18" viewBox="0 0 20 18" fill="none" xmlns="http://www.w3.org/2000/svg">
<mask id="mask0_0_904" style="mask-type:alpha" maskUnits="userSpaceOnUse" x="0" y="0" width="20" height="18">
<path fill-rule="evenodd" clip-rule="evenodd" d="M13.8463 0C15.0273 0 16.0944 0.538756 16.841 1.40311C17.7766 1.20364 18.6535 0.835022 19.4471 0.3256C19.1419 1.36253 18.4915 2.23324 17.644 2.78227C18.4727 2.67569 19.264 2.43662 20 2.08316C19.4518 2.9744 18.7545 3.7576 17.9527 4.38387C17.9609 4.57356 17.9632 4.76569 17.9632 4.9588C17.9632 10.8299 13.8381 17.6 6.28986 17.6C3.97252 17.6 1.81605 16.8642 0 15.6044C0.320476 15.6464 0.648 15.6655 0.979048 15.6655C2.90076 15.6655 4.66986 14.9561 6.075 13.7637C4.2789 13.7295 2.76338 12.4432 2.24219 10.6788C2.49105 10.7306 2.74933 10.7575 3.01343 10.7575C3.3891 10.7575 3.75067 10.7052 4.09581 10.6011C2.21633 10.1943 0.802952 8.39813 0.802952 6.24507V6.19031C1.35705 6.5208 1.98981 6.7232 2.66243 6.74569C1.56129 5.94782 0.837 4.58773 0.837 3.04676C0.837 2.23324 1.0389 1.47058 1.39229 0.812044C3.41729 3.50191 6.4401 5.26876 9.84914 5.45453C9.77871 5.1304 9.74467 4.79111 9.74467 4.44253C9.74467 1.98929 11.5807 0 13.8463 0Z" fill="white"/>
</mask>
<g mask="url(#mask0_0_904)">
<path fill-rule="evenodd" clip-rule="evenodd" d="M-4.76196 -4.88867H24.7618V22.4891H-4.76196V-4.88867Z" fill="black"/>
</g>
</svg>
