<svg width="23" height="25" viewBox="0 0 23 25" fill="none" xmlns="http://www.w3.org/2000/svg">
<mask id="mask0_0_110" style="mask-type:alpha" maskUnits="userSpaceOnUse" x="0" y="0" width="22" height="25">
<path fill-rule="evenodd" clip-rule="evenodd" d="M13.8229 10.618C16.1338 10.6683 18.6304 10.7735 19.2938 10.8474C20.1521 10.9435 20.7549 11.3794 21.1721 12.2064C21.4874 12.8305 21.5876 13.3168 21.7158 14.8151C21.816 16.001 21.8408 16.7403 21.8222 18.1098C21.8012 19.7484 21.6948 21.1919 21.5356 22.0021C21.3678 22.8587 20.9716 23.5888 20.4582 23.9844C20.0628 24.29 19.641 24.4264 18.9769 24.463C18.7796 24.4744 18.5302 24.4897 18.4222 24.4981C18.0401 24.527 15.9909 24.6078 14.8669 24.6391C13.1968 24.6848 10.2745 24.7008 8.68524 24.6733C7.92242 24.6604 7.01978 24.6398 6.6788 24.6276C4.38964 24.5469 2.81819 24.4608 2.50435 24.3983C2.05694 24.3098 1.5567 24.0126 1.26618 23.6628C0.801634 23.1026 0.553087 22.4228 0.432667 21.3764C0.15383 18.9436 0.160016 16.1062 0.44975 13.7588C0.577141 12.7299 0.893336 11.9868 1.42386 11.4686C1.7268 11.1721 2.01811 11.0075 2.40573 10.9099C3.24621 10.6988 9.82243 10.5312 13.8229 10.618ZM12.7626 12.8625H11.5881V21.8885H12.7626V21.5844C12.7626 21.3825 12.775 21.2803 12.7991 21.2803C12.8185 21.2803 12.9506 21.387 13.0927 21.5181C13.5495 21.9396 13.9448 22.0554 14.4373 21.9121C14.6276 21.858 14.8575 21.6362 14.9609 21.4099C15.1468 21.0045 15.1595 20.9688 15.1604 18.9743L15.1604 18.2332C15.1597 16.5009 15.1517 16.2681 15.1038 16.0627C14.9399 15.3699 14.5826 15.0674 13.9814 15.1116C13.645 15.1375 13.3801 15.2686 13.0624 15.5696C12.9241 15.7 12.8006 15.8074 12.7866 15.8074C12.7748 15.8074 12.7636 15.2008 12.7627 14.4397L12.7626 12.8625ZM8.0312 15.1992H6.85822L6.85855 19.0083C6.86093 21.2695 6.88068 21.3533 7.04158 21.6248C7.23888 21.9571 7.70028 22.0615 8.18653 21.8824C8.42113 21.797 8.69688 21.6096 8.92912 21.3779C9.03555 21.2712 9.14198 21.1843 9.1653 21.1843C9.19638 21.1843 9.20722 21.2712 9.20722 21.5364V21.8885H10.3817V15.1992H9.20722V20.3597L8.95401 20.6058C8.75358 20.8017 8.66968 20.8611 8.54543 20.8947C8.33566 20.9519 8.20209 20.9122 8.11584 20.7667C8.05059 20.6584 8.04902 20.6081 8.03974 17.9277L8.0312 15.1992ZM17.4846 15.2076C16.8523 15.434 16.4787 15.8417 16.3288 16.4728C16.2792 16.6818 16.2707 16.8707 16.2698 18.2461L16.2698 18.8207C16.271 20.5389 16.2874 20.6322 16.4849 21.0212C16.857 21.7506 17.7884 22.1316 18.635 21.9C19.2627 21.727 19.6969 21.3062 19.8608 20.7125C19.888 20.6112 19.9198 20.3223 19.9307 20.0716L19.9494 19.6158H18.7399L18.7252 20.0244C18.7081 20.4885 18.6591 20.6478 18.4867 20.7964C18.3034 20.9542 17.9662 20.9656 17.7472 20.8208C17.4862 20.6478 17.4217 20.3558 17.4349 19.4077L17.4442 18.7356L18.6957 18.7279L19.947 18.7188L19.9307 17.7189C19.9105 16.6031 19.8872 16.4339 19.6961 16.0376C19.3318 15.2869 18.3228 14.9081 17.4846 15.2076ZM2.2589 12.8617V14.0774L2.98441 14.0865L3.70993 14.0941L3.71847 17.9513C3.72235 20.0724 3.73325 21.8268 3.74179 21.8489C3.75342 21.8801 3.90413 21.8878 4.40206 21.8809L5.04756 21.8725L5.06385 17.9833L5.0802 14.0941L5.82354 14.0865L6.56618 14.0774L6.55764 13.4784L6.54831 12.8785L4.40285 12.8701L2.2589 12.8617ZM12.9428 16.4011C13.2923 16.1389 13.6737 16.1679 13.8252 16.4675C13.8843 16.5848 13.8881 16.69 13.8951 18.4795C13.9021 20.1966 13.8975 20.3818 13.847 20.5273C13.8073 20.6378 13.7569 20.7087 13.6799 20.7598C13.4842 20.8878 13.2007 20.8475 12.942 20.6539L12.8278 20.5685V16.4865L12.9428 16.4011ZM18.0991 16.1473C18.3609 16.1473 18.5271 16.2464 18.6389 16.4689C18.7096 16.61 18.7166 16.6702 18.7275 17.1915L18.7384 17.7593H18.0975C17.5468 17.7593 17.4551 17.7524 17.4388 17.7097C17.4085 17.632 17.4505 16.7334 17.4909 16.6031C17.5848 16.2967 17.7845 16.1473 18.0991 16.1473ZM18.0625 2.99563V9.80837L17.9724 9.8267C17.8644 9.84878 16.8624 9.84725 16.7816 9.8244C16.7326 9.81144 16.7249 9.76723 16.7249 9.5005V9.19104L16.5369 9.37094C16.105 9.78322 15.6389 9.97531 15.2078 9.91891C14.88 9.87624 14.6881 9.75197 14.5569 9.49666C14.4127 9.2166 14.3947 9.18273 14.3925 7.04192L14.3922 3.01243H15.7151L15.729 5.75611C15.7438 8.73605 15.7399 8.66669 15.9217 8.71166C16.0887 8.75208 16.2736 8.66443 16.5035 8.43427L16.7241 8.214L16.7326 5.61283L16.7404 3.01243L17.4014 3.00326L18.0625 2.99563ZM12.6382 3.22886C13.025 3.47352 13.2596 3.82867 13.3855 4.35682C13.4339 4.56178 13.444 4.72493 13.4457 5.87145L13.4458 6.83146C13.4434 8.41343 13.4207 8.54208 13.2286 8.93957C13.0289 9.35491 12.5768 9.72072 12.1053 9.84955C11.8972 9.90518 11.5359 9.93874 11.3588 9.91738C10.7669 9.84725 10.2232 9.50582 9.96141 9.03941C9.69494 8.56459 9.6701 8.31614 9.68567 6.22483C9.69808 4.60526 9.70275 4.50394 9.76799 4.27147C9.9241 3.7189 10.2263 3.34243 10.6947 3.11453C11.3379 2.80282 12.0315 2.84323 12.6382 3.22886ZM9.05411 0.687888L9.71826 0.691728L9.70349 0.796128C9.69185 0.880704 9.2382 2.37451 8.76359 3.89194C8.71234 4.0596 8.5795 4.49174 8.46998 4.85299C8.36046 5.21347 8.2284 5.64178 8.17558 5.80488L8.08005 6.1021L8.08001 8.21685C8.0795 9.70607 8.07334 9.81139 8.0233 9.8244C7.90371 9.85642 6.64532 9.84115 6.62436 9.80765C6.59637 9.76267 6.60104 7.12949 6.62902 6.75682C6.66549 6.27893 6.58317 5.90242 6.23359 4.94064C6.12019 4.62893 5.91514 4.02379 5.77842 3.59698C4.78958 0.511056 4.84162 0.691728 4.93636 0.69096C5.5881 0.685584 6.39206 0.689424 6.40138 0.698544C6.40762 0.70464 6.61891 1.45766 6.87133 2.37298C7.12459 3.28752 7.33509 4.0489 7.34054 4.0657C7.34521 4.08091 7.49356 3.54821 7.66989 2.88134C8.03886 1.48205 8.24627 0.710016 8.25403 0.703152C8.27032 0.687888 8.45368 0.684864 9.05411 0.687888ZM11.0769 4.49098C11.01 4.71806 11.0108 8.09434 11.0784 8.32147C11.1297 8.49216 11.2936 8.67888 11.4147 8.7048C11.5724 8.73758 11.7659 8.70101 11.8777 8.61792H11.8769C12.1038 8.44872 12.1053 8.43427 12.117 6.51902C12.1271 5.03054 12.1217 4.77754 12.0758 4.57478C12.0137 4.30042 11.9049 4.17086 11.6921 4.1137C11.4171 4.04208 11.1654 4.19602 11.0769 4.49098Z" fill="white"/>
</mask>
<g mask="url(#mask0_0_110)">
<path fill-rule="evenodd" clip-rule="evenodd" d="M-4.68115 -4.11317H26.737V29.4868H-4.68115V-4.11317Z" fill="black"/>
</g>
</svg>
